<svg xmlns="http://www.w3.org/2000/svg" xmlns:xlink="http://www.w3.org/1999/xlink" width="500" zoomAndPan="magnify" viewBox="0 0 375 374.999991" height="500" preserveAspectRatio="xMidYMid meet" version="1.0"><defs><g/><clipPath id="936a6629a6"><path d="M 287.066406 188.25 L 291.136719 188.25 L 291.136719 192.320312 L 287.066406 192.320312 Z M 287.066406 188.25 " clip-rule="nonzero"/></clipPath><clipPath id="515f57ff9a"><path d="M 289.101562 188.25 C 287.976562 188.25 287.066406 189.160156 287.066406 190.285156 C 287.066406 191.40625 287.976562 192.320312 289.101562 192.320312 C 290.226562 192.320312 291.136719 191.40625 291.136719 190.285156 C 291.136719 189.160156 290.226562 188.25 289.101562 188.25 Z M 289.101562 188.25 " clip-rule="nonzero"/></clipPath></defs><rect x="-37.5" width="450" fill="#ffffff" y="-37.499999" height="449.999989" fill-opacity="1"/><rect x="-37.5" width="450" fill="#ffffff" y="-37.499999" height="449.999989" fill-opacity="1"/><g fill="#000000" fill-opacity="1"><g transform="translate(79.332713, 196.522866)"><g><path d="M 91.203125 -31.09375 C 88.953125 -30.976562 86.707031 -30.738281 84.46875 -30.375 C 83.476562 -30.25 82.46875 -30.117188 81.4375 -29.984375 C 72.113281 -28.867188 62.8125 -27.457031 53.53125 -25.75 C 53.0625 -25.675781 52.679688 -25.617188 52.390625 -25.578125 C 51.867188 -25.523438 51.492188 -25.457031 51.265625 -25.375 C 51.046875 -25.289062 50.882812 -25.132812 50.78125 -24.90625 C 50.675781 -24.675781 50.570312 -24.296875 50.46875 -23.765625 C 50.394531 -23.472656 50.300781 -23.109375 50.1875 -22.671875 C 49.1875 -19.023438 48.320312 -15.359375 47.59375 -11.671875 C 47.113281 -9.273438 46.832031 -6.859375 46.75 -4.421875 C 46.695312 -3.648438 46.753906 -2.914062 46.921875 -2.21875 C 47.097656 -1.519531 47.519531 -0.941406 48.1875 -0.484375 C 48.269531 -0.441406 48.304688 -0.375 48.296875 -0.28125 C 48.296875 -0.1875 48.257812 -0.09375 48.1875 0 C 48.113281 0.0820312 48.035156 0.140625 47.953125 0.171875 C 46.617188 0.597656 45.710938 0.238281 45.234375 -0.90625 C 44.960938 -1.539062 44.820312 -2.226562 44.8125 -2.96875 C 44.800781 -3.007812 44.796875 -3.039062 44.796875 -3.0625 C 44.703125 -4.300781 44.71875 -5.546875 44.84375 -6.796875 C 44.976562 -8.054688 45.15625 -9.316406 45.375 -10.578125 C 46.09375 -14.398438 46.953125 -18.195312 47.953125 -21.96875 C 48.015625 -22.125 48.054688 -22.285156 48.078125 -22.453125 C 48.128906 -22.640625 48.1875 -22.832031 48.25 -23.03125 C 48.320312 -23.289062 48.390625 -23.5625 48.453125 -23.84375 C 48.523438 -24.125 48.523438 -24.394531 48.453125 -24.65625 C 48.304688 -24.738281 48.171875 -24.78125 48.046875 -24.78125 C 47.921875 -24.789062 47.796875 -24.769531 47.671875 -24.71875 C 47.648438 -24.71875 47.617188 -24.710938 47.578125 -24.703125 C 46.484375 -24.523438 45.394531 -24.335938 44.3125 -24.140625 C 44 -24.097656 43.675781 -24.050781 43.34375 -24 C 42.945312 -23.90625 42.628906 -23.71875 42.390625 -23.4375 C 42.148438 -23.164062 41.929688 -22.84375 41.734375 -22.46875 C 41.460938 -21.988281 41.191406 -21.503906 40.921875 -21.015625 C 39.804688 -18.972656 38.664062 -16.941406 37.5 -14.921875 C 35.78125 -11.984375 33.953125 -9.117188 32.015625 -6.328125 C 30.078125 -3.546875 27.972656 -0.894531 25.703125 1.625 C 22.847656 4.875 19.742188 7.820312 16.390625 10.46875 C 11.234375 14.414062 5.550781 16.816406 -0.65625 17.671875 C -6.507812 18.492188 -12.019531 17.773438 -17.1875 15.515625 C -18.644531 14.878906 -19.984375 14.046875 -21.203125 13.015625 C -22.015625 12.285156 -22.703125 11.460938 -23.265625 10.546875 C -23.828125 9.640625 -24.195312 8.613281 -24.375 7.46875 C -24.539062 6.082031 -24.4375 4.753906 -24.0625 3.484375 C -23.6875 2.210938 -23.066406 1.019531 -22.203125 -0.09375 C -21.023438 -1.675781 -19.664062 -3.070312 -18.125 -4.28125 C -16.65625 -5.5 -15.109375 -6.601562 -13.484375 -7.59375 C -11.867188 -8.582031 -10.226562 -9.492188 -8.5625 -10.328125 C -5.875 -11.710938 -3.128906 -12.953125 -0.328125 -14.046875 C 2.472656 -15.148438 5.300781 -16.160156 8.15625 -17.078125 C 14.945312 -19.160156 21.804688 -20.925781 28.734375 -22.375 C 32.253906 -23.164062 35.785156 -23.847656 39.328125 -24.421875 C 40.296875 -24.554688 40.976562 -25.09375 41.375 -26.03125 C 42.101562 -27.5 42.832031 -28.972656 43.5625 -30.453125 C 44.695312 -32.722656 45.8125 -35.03125 46.90625 -37.375 C 51.90625 -48.320312 56.613281 -59.390625 61.03125 -70.578125 C 61.382812 -71.523438 61.734375 -72.488281 62.078125 -73.46875 C 62.234375 -73.957031 62.40625 -74.453125 62.59375 -74.953125 C 62.800781 -75.585938 63.226562 -75.992188 63.875 -76.171875 C 64.226562 -76.234375 64.503906 -76.175781 64.703125 -76 C 64.910156 -75.832031 64.972656 -75.566406 64.890625 -75.203125 C 64.804688 -74.898438 64.703125 -74.609375 64.578125 -74.328125 C 63.898438 -72.410156 63.320312 -70.488281 62.84375 -68.5625 C 62.65625 -67.882812 62.46875 -67.210938 62.28125 -66.546875 C 60.5625 -60.328125 58.820312 -54.09375 57.0625 -47.84375 C 55.738281 -43.03125 54.390625 -38.207031 53.015625 -33.375 C 52.640625 -31.9375 52.265625 -30.507812 51.890625 -29.09375 C 51.804688 -28.789062 51.722656 -28.503906 51.640625 -28.234375 C 51.617188 -28.179688 51.601562 -28.117188 51.59375 -28.046875 C 51.539062 -27.835938 51.5 -27.640625 51.46875 -27.453125 C 51.445312 -27.273438 51.492188 -27.101562 51.609375 -26.9375 C 51.804688 -26.84375 52.019531 -26.804688 52.25 -26.828125 C 52.476562 -26.859375 52.691406 -26.890625 52.890625 -26.921875 C 53.054688 -26.972656 53.203125 -27.003906 53.328125 -27.015625 C 54.296875 -27.160156 55.257812 -27.320312 56.21875 -27.5 C 57.539062 -27.707031 58.867188 -27.910156 60.203125 -28.109375 C 67.441406 -29.148438 74.691406 -30.160156 81.953125 -31.140625 C 84.328125 -31.484375 86.695312 -31.773438 89.0625 -32.015625 C 89.28125 -32.023438 89.5 -32.046875 89.71875 -32.078125 C 89.851562 -32.097656 89.992188 -32.125 90.140625 -32.15625 C 90.453125 -32.207031 90.75 -32.226562 91.03125 -32.21875 C 91.320312 -32.207031 91.613281 -32.144531 91.90625 -32.03125 C 91.945312 -32.007812 91.988281 -31.960938 92.03125 -31.890625 C 92.070312 -31.816406 92.078125 -31.753906 92.046875 -31.703125 C 92.066406 -31.617188 92.050781 -31.539062 92 -31.46875 C 91.945312 -31.394531 91.894531 -31.347656 91.84375 -31.328125 C 91.644531 -31.203125 91.429688 -31.125 91.203125 -31.09375 Z M 39.515625 -22.5 C 39.578125 -22.675781 39.566406 -22.820312 39.484375 -22.9375 C 39.398438 -23.050781 39.28125 -23.09375 39.125 -23.0625 C 38.875 -23.050781 38.632812 -23.015625 38.40625 -22.953125 C 38.269531 -22.921875 38.140625 -22.898438 38.015625 -22.890625 C 29.296875 -21.359375 20.648438 -19.335938 12.078125 -16.828125 C 8.804688 -15.878906 5.566406 -14.804688 2.359375 -13.609375 C -0.847656 -12.421875 -3.988281 -11.0625 -7.0625 -9.53125 C -8.71875 -8.71875 -10.332031 -7.828125 -11.90625 -6.859375 C -13.476562 -5.898438 -14.992188 -4.816406 -16.453125 -3.609375 C -17.984375 -2.398438 -19.320312 -1.007812 -20.46875 0.5625 C -21.8125 2.46875 -22.429688 4.375 -22.328125 6.28125 C -22.234375 8.1875 -21.441406 9.910156 -19.953125 11.453125 C -18.867188 12.523438 -17.632812 13.394531 -16.25 14.0625 C -11.21875 16.53125 -5.582031 17.285156 0.65625 16.328125 C 2.25 16.066406 4.050781 15.5625 6.0625 14.8125 C 8.039062 14.050781 9.921875 13.097656 11.703125 11.953125 C 13.492188 10.816406 15.203125 9.539062 16.828125 8.125 C 20.835938 4.664062 24.441406 0.800781 27.640625 -3.46875 C 29.867188 -6.351562 31.925781 -9.34375 33.8125 -12.4375 C 35.695312 -15.539062 37.5 -18.679688 39.21875 -21.859375 C 39.320312 -22.085938 39.421875 -22.300781 39.515625 -22.5 Z M 49.5625 -27.828125 C 50.613281 -31.910156 51.71875 -35.988281 52.875 -40.0625 C 52.925781 -40.289062 53.097656 -40.9375 53.390625 -42 C 53.691406 -43.070312 54.035156 -44.3125 54.421875 -45.71875 C 54.804688 -47.125 55.148438 -48.445312 55.453125 -49.6875 C 55.753906 -50.9375 55.957031 -51.867188 56.0625 -52.484375 C 56.175781 -53.109375 56.109375 -53.15625 55.859375 -52.625 C 55.785156 -52.519531 55.742188 -52.410156 55.734375 -52.296875 C 55.515625 -51.835938 55.3125 -51.390625 55.125 -50.953125 C 53.539062 -47.316406 51.941406 -43.6875 50.328125 -40.0625 C 48.722656 -36.445312 47.035156 -32.863281 45.265625 -29.3125 C 45.085938 -28.96875 44.914062 -28.613281 44.75 -28.25 C 44.40625 -27.582031 44.070312 -26.898438 43.75 -26.203125 C 43.613281 -25.921875 43.597656 -25.703125 43.703125 -25.546875 C 43.804688 -25.398438 43.992188 -25.347656 44.265625 -25.390625 C 44.734375 -25.460938 45.1875 -25.546875 45.625 -25.640625 C 46.320312 -25.816406 47.03125 -25.960938 47.75 -26.078125 C 48.300781 -26.140625 48.703125 -26.320312 48.953125 -26.625 C 49.210938 -26.925781 49.414062 -27.328125 49.5625 -27.828125 Z M 49.5625 -27.828125 "/></g></g><g transform="translate(134.334575, 187.589259)"><g><path d="M 12.328125 -10.890625 C 12.554688 -10.691406 12.394531 -10.234375 11.84375 -9.515625 C 11.300781 -8.804688 10.695312 -8.179688 10.03125 -7.640625 C 9.375 -7.109375 8.597656 -6.550781 7.703125 -5.96875 C 7.117188 -5.582031 6.460938 -5.378906 5.734375 -5.359375 C 5.003906 -5.335938 4.570312 -5.710938 4.4375 -6.484375 C 4.3125 -7.265625 4.363281 -8.0625 4.59375 -8.875 C 4.820312 -9.726562 4.832031 -10.144531 4.625 -10.125 C 4.425781 -10.113281 4.039062 -9.859375 3.46875 -9.359375 C 1.988281 -8.003906 0.65625 -6.515625 -0.53125 -4.890625 C -0.84375 -4.367188 -1.289062 -4.03125 -1.875 -3.875 C -2.175781 -3.832031 -2.425781 -3.890625 -2.625 -4.046875 C -2.820312 -4.210938 -2.875 -4.414062 -2.78125 -4.65625 C -2.070312 -6.695312 -1.347656 -8.726562 -0.609375 -10.75 C -0.429688 -11.164062 -0.117188 -11.457031 0.328125 -11.625 C 0.515625 -11.6875 0.703125 -11.65625 0.890625 -11.53125 C 1.085938 -11.40625 1.203125 -11.242188 1.234375 -11.046875 C 1.242188 -10.847656 1.207031 -10.613281 1.125 -10.34375 C 1.082031 -10.1875 1.046875 -10.035156 1.015625 -9.890625 C 0.992188 -9.742188 1 -9.625 1.03125 -9.53125 C 1.0625 -9.4375 1.140625 -9.414062 1.265625 -9.46875 C 1.421875 -9.59375 1.570312 -9.722656 1.71875 -9.859375 C 2.125 -10.191406 2.507812 -10.507812 2.875 -10.8125 C 3.195312 -11.0625 3.539062 -11.300781 3.90625 -11.53125 C 4.28125 -11.757812 4.675781 -11.9375 5.09375 -12.0625 C 5.78125 -12.21875 6.296875 -12.140625 6.640625 -11.828125 C 6.992188 -11.523438 7.113281 -11.035156 7 -10.359375 C 6.851562 -9.742188 6.703125 -9.128906 6.546875 -8.515625 C 6.316406 -7.941406 6.328125 -7.53125 6.578125 -7.28125 C 6.828125 -7.039062 7.738281 -7.519531 9.3125 -8.71875 L 10.5 -9.671875 C 11.601562 -10.660156 12.210938 -11.066406 12.328125 -10.890625 Z M 12.328125 -10.890625 "/></g></g><g transform="translate(147.052671, 185.523538)"><g><path d="M 12.328125 -10.890625 C 12.554688 -10.691406 12.394531 -10.234375 11.84375 -9.515625 C 11.300781 -8.804688 10.695312 -8.179688 10.03125 -7.640625 C 9.375 -7.109375 8.597656 -6.550781 7.703125 -5.96875 C 7.117188 -5.582031 6.460938 -5.378906 5.734375 -5.359375 C 5.003906 -5.335938 4.570312 -5.710938 4.4375 -6.484375 C 4.3125 -7.265625 4.363281 -8.0625 4.59375 -8.875 C 4.820312 -9.726562 4.832031 -10.144531 4.625 -10.125 C 4.425781 -10.113281 4.039062 -9.859375 3.46875 -9.359375 C 1.988281 -8.003906 0.65625 -6.515625 -0.53125 -4.890625 C -0.84375 -4.367188 -1.289062 -4.03125 -1.875 -3.875 C -2.175781 -3.832031 -2.425781 -3.890625 -2.625 -4.046875 C -2.820312 -4.210938 -2.875 -4.414062 -2.78125 -4.65625 C -2.070312 -6.695312 -1.347656 -8.726562 -0.609375 -10.75 C -0.429688 -11.164062 -0.117188 -11.457031 0.328125 -11.625 C 0.515625 -11.6875 0.703125 -11.65625 0.890625 -11.53125 C 1.085938 -11.40625 1.203125 -11.242188 1.234375 -11.046875 C 1.242188 -10.847656 1.207031 -10.613281 1.125 -10.34375 C 1.082031 -10.1875 1.046875 -10.035156 1.015625 -9.890625 C 0.992188 -9.742188 1 -9.625 1.03125 -9.53125 C 1.0625 -9.4375 1.140625 -9.414062 1.265625 -9.46875 C 1.421875 -9.59375 1.570312 -9.722656 1.71875 -9.859375 C 2.125 -10.191406 2.507812 -10.507812 2.875 -10.8125 C 3.195312 -11.0625 3.539062 -11.300781 3.90625 -11.53125 C 4.28125 -11.757812 4.675781 -11.9375 5.09375 -12.0625 C 5.78125 -12.21875 6.296875 -12.140625 6.640625 -11.828125 C 6.992188 -11.523438 7.113281 -11.035156 7 -10.359375 C 6.851562 -9.742188 6.703125 -9.128906 6.546875 -8.515625 C 6.316406 -7.941406 6.328125 -7.53125 6.578125 -7.28125 C 6.828125 -7.039062 7.738281 -7.519531 9.3125 -8.71875 L 10.5 -9.671875 C 11.601562 -10.660156 12.210938 -11.066406 12.328125 -10.890625 Z M 12.328125 -10.890625 "/></g></g><g transform="translate(159.770768, 183.457818)"><g><path d="M 11.15625 -10.875 C 11.457031 -10.769531 11.535156 -10.398438 11.390625 -9.765625 C 11.140625 -9.265625 10.851562 -8.789062 10.53125 -8.34375 C 10.207031 -7.90625 9.835938 -7.492188 9.421875 -7.109375 C 9.390625 -7.109375 9.378906 -7.097656 9.390625 -7.078125 C 9.128906 -6.828125 8.835938 -6.597656 8.515625 -6.390625 C 5.921875 -4.941406 4.421875 -5.296875 4.015625 -7.453125 C 3.046875 -6.296875 2.390625 -5.578125 2.046875 -5.296875 C 1.222656 -4.609375 0.269531 -4.210938 -0.8125 -4.109375 C -1.601562 -4.003906 -2.175781 -4.144531 -2.53125 -4.53125 C -2.882812 -4.925781 -2.957031 -5.523438 -2.75 -6.328125 C -2.425781 -7.578125 -1.863281 -8.734375 -1.0625 -9.796875 C -0.132812 -10.992188 0.953125 -12.007812 2.203125 -12.84375 C 2.859375 -13.320312 3.582031 -13.582031 4.375 -13.625 C 5.175781 -13.707031 5.722656 -13.34375 6.015625 -12.53125 C 6.117188 -12.28125 6.09375 -12.039062 5.9375 -11.8125 C 5.71875 -11.539062 5.429688 -11.4375 5.078125 -11.5 C 5.054688 -11.5 5.019531 -11.5 4.96875 -11.5 C 4.925781 -11.507812 4.890625 -11.523438 4.859375 -11.546875 C 4.460938 -11.960938 4.097656 -12.101562 3.765625 -11.96875 C 3.429688 -11.832031 3.09375 -11.613281 2.75 -11.3125 C 1.132812 -9.988281 0.0507812 -8.328125 -0.5 -6.328125 C -0.539062 -6.234375 -0.554688 -6.132812 -0.546875 -6.03125 C -0.546875 -5.9375 -0.503906 -5.863281 -0.421875 -5.8125 C -0.210938 -5.78125 0.0078125 -5.832031 0.25 -5.96875 C 0.488281 -6.113281 0.71875 -6.300781 0.9375 -6.53125 C 1.164062 -6.769531 1.359375 -6.960938 1.515625 -7.109375 C 1.535156 -7.148438 1.546875 -7.171875 1.546875 -7.171875 C 2.273438 -8.015625 2.984375 -8.875 3.671875 -9.75 C 3.960938 -10.1875 4.378906 -10.472656 4.921875 -10.609375 C 5.679688 -10.734375 6.046875 -10.445312 6.015625 -9.75 C 5.992188 -9.476562 5.960938 -9.207031 5.921875 -8.9375 C 5.796875 -7.789062 5.890625 -7.144531 6.203125 -7 C 6.515625 -6.851562 6.9375 -6.921875 7.46875 -7.203125 C 8.007812 -7.492188 8.523438 -7.953125 9.015625 -8.578125 C 9.503906 -9.210938 9.910156 -9.78125 10.234375 -10.28125 C 10.554688 -10.789062 10.863281 -10.988281 11.15625 -10.875 Z M 11.15625 -10.875 "/></g></g><g transform="translate(171.274312, 181.589369)"><g/></g><g transform="translate(184.391475, 179.45883)"><g><path d="M 62.109375 -56.421875 C 63.734375 -53.441406 64 -50.242188 62.90625 -46.828125 C 62.8125 -46.503906 62.675781 -46.203125 62.5 -45.921875 C 62.320312 -45.648438 62.054688 -45.441406 61.703125 -45.296875 C 61.441406 -45.203125 61.203125 -45.222656 60.984375 -45.359375 C 60.765625 -45.503906 60.660156 -45.691406 60.671875 -45.921875 C 60.753906 -46.378906 60.84375 -46.820312 60.9375 -47.25 C 60.96875 -47.476562 61.023438 -47.703125 61.109375 -47.921875 C 61.535156 -50.222656 61.320312 -52.40625 60.46875 -54.46875 C 59.519531 -56.8125 57.796875 -58.171875 55.296875 -58.546875 C 53.847656 -58.753906 52.421875 -58.757812 51.015625 -58.5625 C 49.609375 -58.363281 48.203125 -58.023438 46.796875 -57.546875 C 42.535156 -56.015625 38.441406 -54.023438 34.515625 -51.578125 C 28.472656 -47.910156 22.84375 -43.644531 17.625 -38.78125 C 13.15625 -34.601562 9.273438 -29.910156 5.984375 -24.703125 C 4.835938 -22.898438 3.84375 -21.019531 3 -19.0625 C 2.15625 -17.101562 1.550781 -15.066406 1.1875 -12.953125 C 0.851562 -10.835938 0.863281 -8.765625 1.21875 -6.734375 C 1.65625 -4.546875 2.507812 -2.757812 3.78125 -1.375 C 5.0625 0 6.632812 0.898438 8.5 1.328125 C 10.363281 1.765625 12.359375 1.625 14.484375 0.90625 C 17.210938 -0.0195312 19.703125 -1.453125 21.953125 -3.390625 C 23.285156 -4.492188 24.503906 -5.695312 25.609375 -7 C 26.722656 -8.300781 27.773438 -9.664062 28.765625 -11.09375 C 31.148438 -14.5625 33.195312 -18.222656 34.90625 -22.078125 C 35.882812 -24.335938 36.625 -26.6875 37.125 -29.125 C 37.15625 -29.207031 37.175781 -29.304688 37.1875 -29.421875 C 37.300781 -29.984375 37.445312 -30.539062 37.625 -31.09375 C 37.914062 -31.863281 38.5 -32.273438 39.375 -32.328125 C 39.914062 -32.347656 40.265625 -32.085938 40.421875 -31.546875 C 40.554688 -30.734375 40.523438 -29.90625 40.328125 -29.0625 C 39.296875 -23.226562 38.082031 -17.425781 36.6875 -11.65625 C 36.664062 -11.519531 36.640625 -11.382812 36.609375 -11.25 C 36.515625 -10.976562 36.441406 -10.707031 36.390625 -10.4375 C 36.367188 -10.351562 36.359375 -10.269531 36.359375 -10.1875 C 36.265625 -9.875 36.234375 -9.539062 36.265625 -9.1875 C 36.285156 -9.0625 36.34375 -8.976562 36.4375 -8.9375 C 36.539062 -8.894531 36.660156 -8.859375 36.796875 -8.828125 C 36.972656 -8.796875 37.113281 -8.738281 37.21875 -8.65625 C 37.257812 -8.664062 37.289062 -8.65625 37.3125 -8.625 C 37.394531 -8.5625 37.46875 -8.5 37.53125 -8.4375 C 37.59375 -8.375 37.582031 -8.265625 37.5 -8.109375 C 37.445312 -7.972656 37.359375 -7.859375 37.234375 -7.765625 C 37.078125 -7.648438 36.914062 -7.582031 36.75 -7.5625 C 36.25 -7.539062 35.878906 -7.367188 35.640625 -7.046875 C 35.398438 -6.734375 35.226562 -6.359375 35.125 -5.921875 C 34.664062 -4.367188 34.195312 -2.816406 33.71875 -1.265625 C 32.726562 1.972656 31.546875 5.164062 30.171875 8.3125 C 29.328125 10.28125 28.320312 12.171875 27.15625 13.984375 C 25.957031 15.898438 24.425781 17.488281 22.5625 18.75 C 21.539062 19.4375 20.46875 19.90625 19.34375 20.15625 C 18.039062 20.46875 16.914062 20.328125 15.96875 19.734375 C 15.03125 19.148438 14.398438 18.203125 14.078125 16.890625 C 13.816406 15.796875 13.78125 14.648438 13.96875 13.453125 C 14.414062 11.160156 15.273438 9.039062 16.546875 7.09375 C 19.765625 1.9375 23.929688 -2.191406 29.046875 -5.296875 C 29.898438 -5.796875 30.757812 -6.257812 31.625 -6.6875 C 31.71875 -6.769531 31.828125 -6.832031 31.953125 -6.875 C 32.609375 -7.175781 33.039062 -7.671875 33.25 -8.359375 C 33.414062 -9.078125 33.59375 -9.785156 33.78125 -10.484375 C 34.34375 -12.390625 34.769531 -14.3125 35.0625 -16.25 C 35.070312 -16.3125 35.0625 -16.363281 35.03125 -16.40625 C 34.988281 -16.425781 34.96875 -16.445312 34.96875 -16.46875 C 34.695312 -16.375 34.492188 -16.222656 34.359375 -16.015625 C 34.234375 -15.816406 34.101562 -15.601562 33.96875 -15.375 C 33.914062 -15.238281 33.847656 -15.101562 33.765625 -14.96875 C 32.203125 -12.289062 30.457031 -9.742188 28.53125 -7.328125 C 26.175781 -4.378906 23.429688 -1.953125 20.296875 -0.046875 C 18.515625 1.023438 16.671875 1.84375 14.765625 2.40625 C 12.867188 2.96875 10.921875 3.210938 8.921875 3.140625 C 6.617188 3.054688 4.566406 2.289062 2.765625 0.84375 C 0.972656 -0.601562 -0.285156 -2.585938 -1.015625 -5.109375 C -1.453125 -6.679688 -1.648438 -8.269531 -1.609375 -9.875 C -1.578125 -11.488281 -1.351562 -13.117188 -0.9375 -14.765625 C -0.445312 -16.597656 0.1875 -18.359375 0.96875 -20.046875 C 1.75 -21.742188 2.644531 -23.40625 3.65625 -25.03125 C 7.25 -30.726562 11.550781 -35.820312 16.5625 -40.3125 C 20.144531 -43.570312 23.882812 -46.554688 27.78125 -49.265625 C 31.6875 -51.984375 35.789062 -54.378906 40.09375 -56.453125 C 41.96875 -57.378906 43.894531 -58.164062 45.875 -58.8125 C 47.863281 -59.46875 49.882812 -59.921875 51.9375 -60.171875 C 54.082031 -60.441406 56.160156 -60.273438 58.171875 -59.671875 C 59.921875 -59.117188 61.234375 -58.035156 62.109375 -56.421875 Z M 32.09375 -4.640625 C 32.101562 -4.828125 32.046875 -4.972656 31.921875 -5.078125 C 31.804688 -5.179688 31.664062 -5.1875 31.5 -5.09375 C 31.113281 -4.894531 30.738281 -4.691406 30.375 -4.484375 C 26.03125 -1.671875 22.378906 1.898438 19.421875 6.234375 C 18.347656 7.785156 17.484375 9.453125 16.828125 11.234375 C 16.328125 12.484375 16.125 13.894531 16.21875 15.46875 C 16.226562 15.488281 16.238281 15.539062 16.25 15.625 C 16.257812 15.84375 16.300781 16.109375 16.375 16.421875 C 16.707031 17.578125 17.238281 18.296875 17.96875 18.578125 C 18.707031 18.867188 19.601562 18.695312 20.65625 18.0625 C 22.144531 17.039062 23.394531 15.765625 24.40625 14.234375 C 25.675781 12.367188 26.742188 10.410156 27.609375 8.359375 C 28.484375 6.378906 29.269531 4.359375 29.96875 2.296875 C 30.675781 0.242188 31.328125 -1.828125 31.921875 -3.921875 C 31.984375 -4.171875 32.039062 -4.398438 32.09375 -4.609375 C 32.09375 -4.628906 32.09375 -4.640625 32.09375 -4.640625 Z M 32.09375 -4.640625 "/></g></g><g transform="translate(229.017592, 172.21049)"><g><path d="M 5.6875 -8.4375 C 5.195312 -7.601562 4.578125 -6.8125 3.828125 -6.0625 C 3.085938 -5.3125 2.203125 -4.742188 1.171875 -4.359375 C 0.148438 -3.972656 -0.679688 -3.914062 -1.328125 -4.1875 C -1.984375 -4.457031 -2.234375 -5.257812 -2.078125 -6.59375 C -1.835938 -7.988281 -1.40625 -9.347656 -0.78125 -10.671875 C -0.632812 -10.960938 -0.398438 -11.1875 -0.078125 -11.34375 C 0.160156 -11.4375 0.390625 -11.425781 0.609375 -11.3125 C 0.828125 -11.195312 0.929688 -11.023438 0.921875 -10.796875 C 0.816406 -10.347656 0.691406 -9.898438 0.546875 -9.453125 C 0.410156 -9.003906 0.320312 -8.710938 0.28125 -8.578125 C -0.0195312 -7.765625 -0.179688 -6.941406 -0.203125 -6.109375 C -0.128906 -5.648438 0.488281 -5.722656 1.65625 -6.328125 C 2.820312 -6.929688 3.90625 -7.867188 4.90625 -9.140625 C 5.90625 -10.410156 6.410156 -10.816406 6.421875 -10.359375 C 6.429688 -9.910156 6.1875 -9.269531 5.6875 -8.4375 Z M 1.75 -13.75 C 1.6875 -13.6875 1.566406 -13.609375 1.390625 -13.515625 C 1.222656 -13.429688 1.039062 -13.351562 0.84375 -13.28125 C 0.65625 -13.21875 0.492188 -13.222656 0.359375 -13.296875 C 0.234375 -13.378906 0.203125 -13.566406 0.265625 -13.859375 C 0.378906 -14.367188 0.503906 -14.820312 0.640625 -15.21875 C 0.773438 -15.625 0.972656 -16.078125 1.234375 -16.578125 C 1.410156 -16.796875 1.617188 -16.929688 1.859375 -16.984375 C 2.097656 -17.035156 2.3125 -17.003906 2.5 -16.890625 C 2.6875 -16.785156 2.765625 -16.601562 2.734375 -16.34375 C 2.617188 -15.375 2.289062 -14.507812 1.75 -13.75 Z M 1.75 -13.75 "/></g></g><g transform="translate(235.784382, 171.111403)"><g><path d="M 12.328125 -10.890625 C 12.554688 -10.691406 12.394531 -10.234375 11.84375 -9.515625 C 11.300781 -8.804688 10.695312 -8.179688 10.03125 -7.640625 C 9.375 -7.109375 8.597656 -6.550781 7.703125 -5.96875 C 7.117188 -5.582031 6.460938 -5.378906 5.734375 -5.359375 C 5.003906 -5.335938 4.570312 -5.710938 4.4375 -6.484375 C 4.3125 -7.265625 4.363281 -8.0625 4.59375 -8.875 C 4.820312 -9.726562 4.832031 -10.144531 4.625 -10.125 C 4.425781 -10.113281 4.039062 -9.859375 3.46875 -9.359375 C 1.988281 -8.003906 0.65625 -6.515625 -0.53125 -4.890625 C -0.84375 -4.367188 -1.289062 -4.03125 -1.875 -3.875 C -2.175781 -3.832031 -2.425781 -3.890625 -2.625 -4.046875 C -2.820312 -4.210938 -2.875 -4.414062 -2.78125 -4.65625 C -2.070312 -6.695312 -1.347656 -8.726562 -0.609375 -10.75 C -0.429688 -11.164062 -0.117188 -11.457031 0.328125 -11.625 C 0.515625 -11.6875 0.703125 -11.65625 0.890625 -11.53125 C 1.085938 -11.40625 1.203125 -11.242188 1.234375 -11.046875 C 1.242188 -10.847656 1.207031 -10.613281 1.125 -10.34375 C 1.082031 -10.1875 1.046875 -10.035156 1.015625 -9.890625 C 0.992188 -9.742188 1 -9.625 1.03125 -9.53125 C 1.0625 -9.4375 1.140625 -9.414062 1.265625 -9.46875 C 1.421875 -9.59375 1.570312 -9.722656 1.71875 -9.859375 C 2.125 -10.191406 2.507812 -10.507812 2.875 -10.8125 C 3.195312 -11.0625 3.539062 -11.300781 3.90625 -11.53125 C 4.28125 -11.757812 4.675781 -11.9375 5.09375 -12.0625 C 5.78125 -12.21875 6.296875 -12.140625 6.640625 -11.828125 C 6.992188 -11.523438 7.113281 -11.035156 7 -10.359375 C 6.851562 -9.742188 6.703125 -9.128906 6.546875 -8.515625 C 6.316406 -7.941406 6.328125 -7.53125 6.578125 -7.28125 C 6.828125 -7.039062 7.738281 -7.519531 9.3125 -8.71875 L 10.5 -9.671875 C 11.601562 -10.660156 12.210938 -11.066406 12.328125 -10.890625 Z M 12.328125 -10.890625 "/></g></g><g transform="translate(248.502478, 169.045682)"><g><path d="M 13.796875 -11.78125 C 13.890625 -11.820312 14 -11.835938 14.125 -11.828125 C 14.25 -11.828125 14.347656 -11.789062 14.421875 -11.71875 C 14.503906 -11.601562 14.519531 -11.476562 14.46875 -11.34375 C 14.414062 -11.207031 14.316406 -11.09375 14.171875 -11 C 13.210938 -10.320312 12.25 -9.625 11.28125 -8.90625 C 10.144531 -8.070312 9.007812 -7.234375 7.875 -6.390625 C 7.695312 -6.285156 7.53125 -6.171875 7.375 -6.046875 C 7.125 -5.835938 6.867188 -5.648438 6.609375 -5.484375 C 6.023438 -5.078125 5.679688 -4.53125 5.578125 -3.84375 C 5.285156 -2.175781 4.953125 -0.519531 4.578125 1.125 C 4.117188 3.34375 3.460938 5.476562 2.609375 7.53125 C 2.117188 8.71875 1.46875 9.804688 0.65625 10.796875 C -0.289062 12.035156 -1.460938 12.90625 -2.859375 13.40625 C -5.171875 14.28125 -7.503906 14.503906 -9.859375 14.078125 C -10.828125 13.890625 -11.695312 13.488281 -12.46875 12.875 C -13.519531 12.0625 -13.726562 11.046875 -13.09375 9.828125 C -12.800781 9.296875 -12.476562 8.796875 -12.125 8.328125 C -11.28125 7.273438 -10.347656 6.300781 -9.328125 5.40625 C -5.628906 2.113281 -1.796875 -0.984375 2.171875 -3.890625 C 2.191406 -3.898438 2.203125 -3.90625 2.203125 -3.90625 C 2.617188 -4.207031 3.03125 -4.519531 3.4375 -4.84375 C 3.476562 -4.914062 3.546875 -5.054688 3.640625 -5.265625 C 3.742188 -5.484375 3.8125 -5.691406 3.84375 -5.890625 C 3.875 -6.085938 3.832031 -6.21875 3.71875 -6.28125 C 3.601562 -6.351562 3.375 -6.273438 3.03125 -6.046875 C 2.894531 -5.960938 2.765625 -5.878906 2.640625 -5.796875 C 2.328125 -5.578125 2.015625 -5.378906 1.703125 -5.203125 C -0.203125 -4.398438 -1.320312 -5 -1.65625 -7 C -1.789062 -8.21875 -1.59375 -9.363281 -1.0625 -10.4375 C -0.539062 -11.507812 0.191406 -12.40625 1.140625 -13.125 C 2.097656 -13.851562 3.203125 -14.25 4.453125 -14.3125 C 4.578125 -14.332031 4.707031 -14.335938 4.84375 -14.328125 C 5.195312 -14.335938 5.539062 -14.367188 5.875 -14.421875 C 6.21875 -14.472656 6.550781 -14.601562 6.875 -14.8125 C 7.238281 -15.03125 7.535156 -15.035156 7.765625 -14.828125 C 7.992188 -14.617188 8.078125 -14.316406 8.015625 -13.921875 C 7.796875 -13.148438 7.582031 -12.367188 7.375 -11.578125 C 7.226562 -11.078125 7.085938 -10.570312 6.953125 -10.0625 C 6.804688 -9.5 6.664062 -8.9375 6.53125 -8.375 C 6.332031 -7.632812 6.34375 -7.265625 6.5625 -7.265625 C 6.789062 -7.265625 7.148438 -7.445312 7.640625 -7.8125 C 7.703125 -7.84375 7.773438 -7.878906 7.859375 -7.921875 C 8.742188 -8.546875 9.640625 -9.160156 10.546875 -9.765625 C 11.203125 -10.191406 11.84375 -10.617188 12.46875 -11.046875 C 12.894531 -11.335938 13.335938 -11.582031 13.796875 -11.78125 Z M 2.984375 -0.46875 C 3.171875 -1.550781 3.210938 -2.242188 3.109375 -2.546875 C 3.003906 -2.859375 2.769531 -2.90625 2.40625 -2.6875 C 2.039062 -2.476562 1.570312 -2.117188 1 -1.609375 C 0.632812 -1.285156 0.226562 -0.957031 -0.21875 -0.625 C -2.875 1.445312 -5.445312 3.601562 -7.9375 5.84375 C -9.050781 6.757812 -10.003906 7.804688 -10.796875 8.984375 C -11.640625 10.242188 -11.445312 11.207031 -10.21875 11.875 C -9.5 12.269531 -8.734375 12.507812 -7.921875 12.59375 C -7.109375 12.675781 -6.226562 12.640625 -5.28125 12.484375 C -4.175781 12.367188 -3.191406 11.992188 -2.328125 11.359375 C -1.472656 10.734375 -0.734375 9.863281 -0.109375 8.75 C 0.273438 8.050781 0.628906 7.320312 0.953125 6.5625 C 1.890625 4.269531 2.566406 1.925781 2.984375 -0.46875 Z M 0.828125 -6.421875 C 1.160156 -6.347656 1.585938 -6.53125 2.109375 -6.96875 C 2.628906 -7.40625 3.140625 -7.972656 3.640625 -8.671875 C 4.140625 -9.378906 4.515625 -10.078125 4.765625 -10.765625 C 5.015625 -11.460938 5.015625 -12.019531 4.765625 -12.4375 C 4.703125 -12.550781 4.609375 -12.648438 4.484375 -12.734375 C 4.265625 -12.929688 4.039062 -13.003906 3.8125 -12.953125 C 3.582031 -12.910156 3.347656 -12.832031 3.109375 -12.71875 C 2.328125 -12.238281 1.675781 -11.539062 1.15625 -10.625 C 0.632812 -9.707031 0.332031 -8.832031 0.25 -8 C 0.175781 -7.175781 0.367188 -6.648438 0.828125 -6.421875 Z M 0.828125 -6.421875 "/></g></g><g transform="translate(263.320015, 166.638963)"><g><path d="M 7.0625 -9.640625 C 7.375 -10.085938 7.65625 -10.351562 7.90625 -10.4375 C 8.15625 -10.519531 8.328125 -10.503906 8.421875 -10.390625 C 8.523438 -10.285156 8.503906 -10.109375 8.359375 -9.859375 C 7.535156 -8.460938 6.566406 -7.21875 5.453125 -6.125 C 4.335938 -5.03125 3.125 -4.300781 1.8125 -3.9375 C 0.5 -3.582031 -0.425781 -4.179688 -0.96875 -5.734375 C -1.4375 -7.285156 -1 -10.671875 0.34375 -15.890625 C 1.6875 -21.109375 2.71875 -25.367188 3.4375 -28.671875 C 3.5 -28.972656 3.617188 -29.242188 3.796875 -29.484375 C 4.023438 -29.804688 4.34375 -29.921875 4.75 -29.828125 C 4.894531 -29.785156 5.039062 -29.710938 5.1875 -29.609375 C 5.332031 -29.515625 5.410156 -29.296875 5.421875 -28.953125 C 2.054688 -15.085938 0.550781 -7.601562 0.90625 -6.5 C 1.257812 -5.394531 2.035156 -5.234375 3.234375 -6.015625 C 4.429688 -6.804688 5.332031 -7.554688 5.9375 -8.265625 C 6.539062 -8.972656 6.914062 -9.429688 7.0625 -9.640625 Z M 7.0625 -9.640625 "/></g></g><g transform="translate(271.978036, 165.232695)"><g><path d="M 8.8125 -8.265625 C 8.25 -7.492188 7.5625 -6.800781 6.75 -6.1875 C 5.9375 -5.582031 5.238281 -5.160156 4.65625 -4.921875 C 4.070312 -4.679688 3.46875 -4.492188 2.84375 -4.359375 C 1.820312 -4.148438 0.859375 -4.132812 -0.046875 -4.3125 C -1.546875 -4.664062 -2.207031 -5.675781 -2.03125 -7.34375 C -1.851562 -8.78125 -1.207031 -9.984375 -0.09375 -10.953125 C 1.019531 -11.921875 2.238281 -12.503906 3.5625 -12.703125 C 3.5625 -12.703125 3.570312 -12.703125 3.59375 -12.703125 C 3.925781 -12.785156 4.253906 -12.816406 4.578125 -12.796875 C 5.109375 -12.691406 5.476562 -12.441406 5.6875 -12.046875 C 5.894531 -11.660156 5.878906 -11.1875 5.640625 -10.625 C 5.078125 -9.375 4.171875 -8.585938 2.921875 -8.265625 C 2.085938 -8.046875 1.265625 -7.957031 0.453125 -8 C 0.304688 -7.988281 0.179688 -7.921875 0.078125 -7.796875 C -0.0234375 -7.679688 -0.078125 -7.539062 -0.078125 -7.375 C -0.148438 -6.34375 0.257812 -5.757812 1.15625 -5.625 C 2.257812 -5.425781 3.34375 -5.601562 4.40625 -6.15625 C 5.632812 -6.769531 6.738281 -7.726562 7.71875 -9.03125 C 8.707031 -10.34375 9.296875 -10.972656 9.484375 -10.921875 C 9.679688 -10.878906 9.773438 -10.675781 9.765625 -10.3125 C 9.691406 -9.71875 9.375 -9.035156 8.8125 -8.265625 Z M 0.96875 -9.859375 C 0.90625 -9.765625 0.867188 -9.664062 0.859375 -9.5625 C 0.847656 -9.457031 0.898438 -9.378906 1.015625 -9.328125 C 1.453125 -9.160156 1.898438 -9.144531 2.359375 -9.28125 C 2.828125 -9.425781 3.203125 -9.671875 3.484375 -10.015625 C 3.773438 -10.367188 3.859375 -10.75 3.734375 -11.15625 C 3.679688 -11.3125 3.585938 -11.398438 3.453125 -11.421875 C 3.316406 -11.441406 3.191406 -11.425781 3.078125 -11.375 C 2.234375 -11.082031 1.53125 -10.578125 0.96875 -9.859375 Z M 0.96875 -9.859375 "/></g></g></g><g clip-path="url(#936a6629a6)"><g clip-path="url(#515f57ff9a)"><path fill="#000000" d="M 287.066406 188.25 L 291.136719 188.25 L 291.136719 192.320312 L 287.066406 192.320312 Z M 287.066406 188.25 " fill-opacity="1" fill-rule="nonzero"/></g></g></svg>