<svg xmlns="http://www.w3.org/2000/svg" xmlns:xlink="http://www.w3.org/1999/xlink" width="500" zoomAndPan="magnify" viewBox="0 0 375 374.999991" height="500" preserveAspectRatio="xMidYMid meet" version="1.0"><defs><g/></defs><rect x="-37.5" width="450" fill="#ffffff" y="-37.499999" height="449.999989" fill-opacity="1"/><rect x="-37.5" width="450" fill="#ffffff" y="-37.499999" height="449.999989" fill-opacity="1"/><g fill="#000000" fill-opacity="1"><g transform="translate(18.754577, 198.749987)"><g><path d="M 4.046875 23.5 C 3.34375 23.5 3.34375 23.3125 2.640625 23.234375 C 1.234375 16.984375 8.890625 9.15625 12.84375 5.1875 C 13.734375 4.21875 16.890625 1.40625 17.953125 1.140625 C 17.15625 2.546875 16.546875 7.5625 13.203125 14.34375 C 11.703125 17.34375 7.828125 23.5 4.046875 23.5 Z M 46.984375 -18.828125 C 46.109375 -18.390625 44.796875 -18.046875 43.640625 -17.78125 C 40.75 -16.71875 37.140625 -15.046875 34.5 -13.734375 L 25.875 -8.96875 C 24.90625 -8.359375 23.9375 -7.5625 22.875 -7.21875 C 23.0625 -8.96875 24.546875 -14.25 24.984375 -16.1875 C 26.578125 -22.09375 29.484375 -31.421875 31.9375 -36.953125 L 35.546875 -44.703125 C 38.015625 -49.625 47.25 -65.828125 53.421875 -66.171875 C 55.359375 -63.1875 53.421875 -54.46875 52.796875 -51.296875 C 51.21875 -43.640625 48.84375 -31.9375 47.875 -24.375 C 47.609375 -22.609375 47.4375 -20.5 46.984375 -18.828125 Z M 3.515625 26.484375 C 16.546875 26.484375 21.125 -1.578125 22.09375 -2.546875 C 22.171875 -2.734375 24.734375 -4.578125 25.171875 -4.75 C 31.5 -8.796875 31.6875 -8.890625 38.8125 -12.40625 C 41.96875 -13.984375 44.796875 -14.78125 46.46875 -15.578125 C 46.46875 -13.109375 46.109375 -11.53125 45.84375 -9.15625 L 43.125 16.546875 C 42.9375 20.59375 42.328125 27.015625 42.328125 30.1875 C 42.328125 31.765625 42.0625 32.03125 42.0625 33.4375 C 41.890625 36.078125 41.53125 46.203125 44.171875 46.203125 C 46.734375 46.203125 45.578125 44 45.578125 38.71875 C 45.578125 35.734375 45.84375 33.359375 45.84375 30.71875 L 50.078125 -14.953125 C 50.25 -16.8125 50.34375 -16.8125 52.015625 -17.15625 C 54.390625 -17.59375 55.53125 -17.6875 56.0625 -17.6875 C 56.9375 -17.6875 55.875 -17.25 57.46875 -17.25 C 59.3125 -17.25 59.75 -20.5 56.40625 -20.5 C 54.203125 -20.5 52.796875 -19.96875 50.859375 -19.96875 C 50.859375 -21.90625 51.21875 -23.3125 51.484375 -25.171875 C 52.625 -33 57.203125 -55.09375 57.203125 -60.71875 C 57.203125 -63.453125 57.640625 -68.984375 53.15625 -68.984375 C 49.109375 -68.984375 44.171875 -63.1875 42.234375 -60.71875 C 30.625 -46.546875 23.5 -24.46875 19.625 -6.34375 C 19.09375 -3.78125 18.65625 -4.21875 15.046875 -1.234375 C 9.328125 3.515625 -0.609375 13.46875 -0.875 21.296875 C -0.875 24.109375 0.796875 26.484375 3.515625 26.484375 Z M 3.515625 26.484375 "/></g></g></g><g fill="#000000" fill-opacity="1"><g transform="translate(73.312175, 198.749987)"><g><path d="M 2.46875 -4.578125 C 5.890625 -4.578125 9.421875 -15.84375 12.3125 -17.78125 C 13.109375 -16.109375 11.875 -12.578125 13.640625 -7.296875 C 14.4375 -4.921875 15.921875 -2.546875 18.65625 -2.546875 C 19.1875 -2.546875 19.71875 -2.640625 20.328125 -2.8125 C 22.359375 -3.34375 25.171875 -6.859375 26.40625 -8.453125 C 26.921875 -9.15625 32.125 -15.65625 28.6875 -15.65625 C 27.109375 -15.65625 22.4375 -5.1875 18.921875 -5.1875 C 15.65625 -5.1875 15.484375 -13.03125 15.484375 -15.21875 L 14.953125 -20.15625 C 14.515625 -21.125 13.90625 -21.5625 13.28125 -21.5625 C 11.171875 -21.5625 8.53125 -17.078125 8.015625 -16.109375 L 3.78125 -9.6875 C 3.78125 -16.546875 9.5 -24.8125 5.625 -24.8125 C 2.28125 -24.8125 -3.171875 -4.578125 2.46875 -4.578125 Z M 2.46875 -4.578125 "/></g></g></g><g fill="#000000" fill-opacity="1"><g transform="translate(99.711016, 198.749987)"><g><path d="M 2.46875 -4.578125 C 5.890625 -4.578125 9.421875 -15.84375 12.3125 -17.78125 C 13.109375 -16.109375 11.875 -12.578125 13.640625 -7.296875 C 14.4375 -4.921875 15.921875 -2.546875 18.65625 -2.546875 C 19.1875 -2.546875 19.71875 -2.640625 20.328125 -2.8125 C 22.359375 -3.34375 25.171875 -6.859375 26.40625 -8.453125 C 26.921875 -9.15625 32.125 -15.65625 28.6875 -15.65625 C 27.109375 -15.65625 22.4375 -5.1875 18.921875 -5.1875 C 15.65625 -5.1875 15.484375 -13.03125 15.484375 -15.21875 L 14.953125 -20.15625 C 14.515625 -21.125 13.90625 -21.5625 13.28125 -21.5625 C 11.171875 -21.5625 8.53125 -17.078125 8.015625 -16.109375 L 3.78125 -9.6875 C 3.78125 -16.546875 9.5 -24.8125 5.625 -24.8125 C 2.28125 -24.8125 -3.171875 -4.578125 2.46875 -4.578125 Z M 2.46875 -4.578125 "/></g></g></g><g fill="#000000" fill-opacity="1"><g transform="translate(126.109856, 198.749987)"><g><path d="M 0 -8.890625 C 0 -5.71875 0.265625 -4.21875 3.515625 -4.21875 C 6.078125 -4.21875 8.796875 -12.5 10.46875 -13.640625 C 10.46875 -9.859375 13.28125 -5.28125 17.6875 -5.28125 C 19.1875 -5.28125 20.859375 -5.8125 22.609375 -7.046875 L 25.25 -9.15625 C 29.75 -13.46875 29.21875 -15.65625 27.890625 -15.65625 C 27.375 -15.65625 26.75 -15.40625 26.3125 -14.78125 C 25.078125 -13.46875 24.8125 -12.671875 23.140625 -11.171875 C 21.203125 -9.234375 19.359375 -8.1875 17.6875 -8.1875 C 15.84375 -8.1875 14.25 -9.59375 13.546875 -12.765625 C 12.765625 -16.109375 14.25 -20.0625 11.171875 -20.0625 C 10.03125 -20.0625 6.421875 -12.578125 4.65625 -9.859375 L 3.953125 -8.796875 C 3.515625 -8.265625 3.78125 -8.625 3.515625 -8.359375 C 3.515625 -11.265625 4.75 -14.609375 5.890625 -16.453125 C 8.453125 -20.859375 10.203125 -22.09375 11.53125 -22.09375 C 13.203125 -22.09375 14.25 -20.0625 15.484375 -20.0625 C 17.78125 -20.0625 15.484375 -25.078125 11.359375 -25.078125 C 5.1875 -25.078125 0 -13.90625 0 -8.890625 Z M 0 -8.890625 "/></g></g></g><g fill="#000000" fill-opacity="1"><g transform="translate(151.628726, 198.749987)"><g/></g></g><g fill="#000000" fill-opacity="1"><g transform="translate(174.419724, 198.749987)"><g><path d="M 39.515625 43.734375 C 35.734375 43.734375 37.40625 37.140625 38.1875 34.765625 C 40.125 29.046875 46.203125 20.59375 50.78125 16.015625 C 51.921875 14.953125 52.625 13.640625 53.859375 12.671875 C 53.5 19.09375 46.734375 43.734375 39.515625 43.734375 Z M 0 -7.5625 C 0 1.578125 1.9375 9.328125 7.65625 15.140625 C 10.734375 18.296875 13.8125 18.296875 17.953125 18.296875 C 25.953125 18.296875 37.3125 8.265625 41.796875 2.03125 C 47.609375 -5.71875 48.65625 -8.625 53.5 -16.28125 L 57.28125 -22.53125 C 58.4375 -17.515625 56.3125 -1.9375 55.53125 3.78125 C 54.390625 10.734375 53.765625 7.390625 49.28125 12.9375 C 48.65625 13.984375 47.875 14.609375 47.078125 15.484375 C 42.859375 20.9375 34.5 30.53125 34.5 38.1875 C 34.5 42.234375 34.234375 46.546875 40.390625 46.546875 C 41.625 46.546875 43.640625 45.234375 44.53125 44.53125 C 52.09375 38.28125 55.875 21.296875 57.640625 12.140625 C 58.078125 10.640625 58.078125 8.453125 59.21875 7.390625 L 72.421875 -5.109375 C 73.65625 -6.25 74.453125 -7.390625 75.59375 -8.53125 C 76.390625 -9.421875 82.8125 -15.484375 79.375 -15.484375 C 77.609375 -15.484375 75.328125 -12.40625 74.265625 -11.09375 L 62.046875 0.875 C 61.421875 1.3125 61.25 1.3125 60.625 1.9375 C 59.84375 2.375 59.84375 2.734375 59.3125 3.078125 C 59.40625 -0.4375 60.984375 -7.5625 60.984375 -15.484375 C 60.984375 -18.484375 61.421875 -26.578125 58.078125 -26.578125 C 55.171875 -26.578125 51.21875 -18.046875 49.28125 -14.703125 C 45.765625 -8.625 43.640625 -4.40625 39.34375 1.0625 L 34.578125 6.25 C 30.625 10.125 23.5 15.3125 16.984375 15.3125 C 14.609375 15.3125 12.3125 14.609375 10.296875 12.84375 C 8.71875 11.703125 7.65625 9.6875 6.859375 8.015625 C 1.9375 -2.03125 5.015625 -19.71875 7.828125 -29.21875 C 10.296875 -37.40625 18.5625 -57.375 29.296875 -57.375 C 36.953125 -57.375 40.125 -44.703125 40.125 -37.21875 C 40.125 -29.65625 39.953125 -25.875 38.375 -18.5625 C 38.015625 -15.921875 37.578125 -14.953125 38.109375 -12.5 C 38.8125 -12.3125 39.34375 -12.140625 39.6875 -12.140625 C 40.75 -12.140625 41.015625 -13.109375 41.796875 -16.546875 C 44.609375 -27.71875 45.9375 -43.203125 40.921875 -53.5 C 37.921875 -59.40625 33.796875 -62.046875 29.21875 -62.046875 C 18.921875 -62.046875 11.703125 -50.25 7.65625 -41.96875 C 3.078125 -31.859375 0 -18.828125 0 -7.5625 Z M 0 -7.5625 "/></g></g></g><g fill="#000000" fill-opacity="1"><g transform="translate(250.624359, 198.749987)"><g><path d="M 7.296875 0.359375 C 11.4375 0.359375 14.78125 -3.515625 16.890625 -5.71875 C 18.296875 -7.125 23.578125 -13.03125 23.578125 -14.703125 C 23.578125 -15.484375 23.3125 -15.75 22.96875 -15.75 C 21.296875 -15.75 16.625 -9.5 16.28125 -9.0625 C 14.953125 -7.390625 10.390625 -2.734375 7.5625 -2.734375 C 5.1875 -2.734375 4.21875 -7.921875 4.21875 -10.5625 C 4.21875 -19.53125 7.75 -23.5 3.703125 -23.5 C 1.9375 -23.5 1.0625 -19.53125 0.796875 -17.6875 C -0.171875 -13.203125 0 -7.125 2.109375 -3.171875 C 3.078125 -1.5 4.921875 0.359375 7.296875 0.359375 Z M 4.484375 -34.578125 C 4.484375 -32.640625 5.625 -31.765625 6.859375 -31.765625 C 8.625 -31.765625 10.46875 -33.703125 8.796875 -36.953125 C 8.265625 -37.921875 7.65625 -38.28125 7.046875 -38.28125 C 5.71875 -38.28125 4.484375 -36.609375 4.484375 -34.578125 Z M 4.484375 -34.578125 "/></g></g></g><g fill="#000000" fill-opacity="1"><g transform="translate(270.687475, 198.749987)"><g><path d="M 2.46875 -4.578125 C 5.890625 -4.578125 9.421875 -15.84375 12.3125 -17.78125 C 13.109375 -16.109375 11.875 -12.578125 13.640625 -7.296875 C 14.4375 -4.921875 15.921875 -2.546875 18.65625 -2.546875 C 19.1875 -2.546875 19.71875 -2.640625 20.328125 -2.8125 C 22.359375 -3.34375 25.171875 -6.859375 26.40625 -8.453125 C 26.921875 -9.15625 32.125 -15.65625 28.6875 -15.65625 C 27.109375 -15.65625 22.4375 -5.1875 18.921875 -5.1875 C 15.65625 -5.1875 15.484375 -13.03125 15.484375 -15.21875 L 14.953125 -20.15625 C 14.515625 -21.125 13.90625 -21.5625 13.28125 -21.5625 C 11.171875 -21.5625 8.53125 -17.078125 8.015625 -16.109375 L 3.78125 -9.6875 C 3.78125 -16.546875 9.5 -24.8125 5.625 -24.8125 C 2.28125 -24.8125 -3.171875 -4.578125 2.46875 -4.578125 Z M 2.46875 -4.578125 "/></g></g></g><g fill="#000000" fill-opacity="1"><g transform="translate(297.086316, 198.749987)"><g><path d="M 0 32.46875 C -7.046875 32.46875 -1.5 19.71875 -0.53125 17.34375 C 0.875 14.078125 4.921875 8.359375 6.859375 5.890625 C 7.484375 4.84375 10.828125 0.53125 11.96875 0.171875 L 11.609375 5.28125 C 10.734375 12.5 10.296875 20.59375 6.25 27.453125 C 5.015625 29.484375 2.28125 32.46875 0 32.46875 Z M -0.96875 -7.484375 C -0.96875 -6.078125 -1.234375 -3.4375 1.40625 -3.4375 C 3.609375 -3.4375 5.984375 -5.984375 7.21875 -7.21875 C 9.15625 -8.96875 11 -12.234375 11.96875 -12.578125 C 11.96875 -8.96875 12.578125 -4.484375 11.09375 -2.90625 C 5.71875 2.8125 1.3125 8.453125 -2.203125 15.578125 C -4.65625 20.5 -5.625 23.0625 -5.625 28.6875 C -5.625 32.203125 -3.25 34.9375 0 34.9375 C 3.078125 34.9375 6.953125 32.46875 10.390625 25.78125 C 13.109375 20.234375 15.578125 8.265625 15.484375 1.234375 C 15.484375 -0.359375 15.578125 -1.765625 15.75 -3.4375 C 15.921875 -4.921875 17.25 -5.28125 18.21875 -6.078125 C 20.328125 -8.1875 27.625 -13.28125 27.8125 -13.640625 C 28.15625 -14.34375 27.890625 -15.3125 27.1875 -15.3125 C 24.109375 -15.3125 17.34375 -8.1875 15.484375 -7.75 C 15.484375 -10.828125 15.75 -18.046875 13.109375 -18.046875 C 11.703125 -18.046875 10.828125 -16.109375 10.203125 -15.21875 C 9.15625 -13.734375 7.484375 -11.359375 6.34375 -10.125 C 5.1875 -8.96875 3.515625 -6.59375 1.40625 -6.078125 C 1.40625 -10.46875 7.828125 -22.09375 12.9375 -22.09375 C 14.875 -22.09375 14.25 -19.359375 16.375 -19.1875 C 17.859375 -21.46875 16.28125 -24.46875 13.03125 -24.46875 C 6.78125 -24.46875 -0.96875 -13.203125 -0.96875 -7.484375 Z M -0.96875 -7.484375 "/></g></g></g><g fill="#000000" fill-opacity="1"><g transform="translate(321.637232, 198.749987)"><g><path d="M 0.171875 -6.78125 C 0.171875 -1.0625 0.359375 9.765625 5.109375 9.765625 C 7.296875 9.765625 8.96875 6.421875 9.9375 4.921875 C 11.875 1.671875 14.25 -4.484375 16.109375 -8.265625 C 16.546875 -9.15625 19.265625 -14.25 19.265625 -14.78125 C 19.265625 -15.21875 18.921875 -15.75 18.484375 -15.75 C 18.046875 -15.75 17.515625 -15.40625 16.984375 -14.34375 C 14.171875 -9.328125 11.609375 -3.171875 8.96875 1.9375 C 8.015625 3.953125 6.78125 6.34375 4.84375 7.390625 C 0.875 -0.171875 5.8125 -27.546875 8.265625 -36.4375 C 8.53125 -37.3125 10.828125 -42.421875 7.921875 -42.421875 C 5.625 -42.421875 4.84375 -38.015625 4.046875 -35.46875 C 1.84375 -27.375 0.171875 -15.484375 0.171875 -6.78125 Z M 0.171875 -6.78125 "/></g></g></g><g fill="#000000" fill-opacity="1"><g transform="translate(337.124566, 198.749987)"><g><path d="M 4.046875 -15.921875 C 4.65625 -18.125 7.5625 -21.5625 9.9375 -22 C 9.6875 -19.1875 6.25 -17.078125 4.046875 -15.921875 Z M 0.09375 -13.8125 C 0.09375 -11.359375 0 -9.15625 2.109375 -7.046875 C 3.609375 -5.546875 5.375 -4.921875 7.21875 -4.921875 C 12.578125 -4.921875 18.65625 -10.296875 21.90625 -13.546875 C 22.703125 -14.515625 22.703125 -14.609375 22.4375 -15.921875 C 19.796875 -15.921875 21.203125 -15.578125 17.59375 -12.765625 C 16.984375 -12.3125 16.71875 -11.96875 16.015625 -11.4375 C 14.25 -10.125 10.5625 -7.5625 7.484375 -7.5625 C 6.421875 -7.5625 5.375 -7.921875 4.578125 -8.71875 C 3.078125 -10.203125 3.25 -11.609375 3.25 -13.46875 C 5.984375 -13.640625 9.15625 -16.1875 10.5625 -17.78125 C 13.28125 -21.203125 13.28125 -24.734375 9.421875 -24.734375 C 5.1875 -24.734375 0.09375 -18.21875 0.09375 -13.8125 Z M 0.09375 -13.8125 "/></g></g></g></svg>